# xmcd CD database file
#
# Track frame offsets:
#	165
#	15156
#	33334
#	52429
#	64500
#	81201
#	95935
#	111986
#	129832
#	147536
#	164070
#	178537
#
# Disc length: 2630 seconds
#
# Revision: 0
# Processed by: cddbd v1.4PL0 Copyright (c) Steve Scherf et al.
# Submitted via: Feurio! 1.63 - http://www.feurio.com
#
DISCID=a90a440c
DTITLE=Os Farrapos e Iedo Silva - Garrão do Pampa
DYEAR=1900
DGENRE=
TTITLE0=Vaneira sacudida
TTITLE1=A ponte que caiu
TTITLE2=Entupido de alegria
TTITLE3=Briga de canivete
TTITLE4=Mensagem de um Farrapo
TTITLE5=Arrasta o pé
TTITLE6=Gaita da encruzilhada
TTITLE7=Juntando os trapos
TTITLE8=Garrão do Pampa
TTITLE9=Gotas de orvalho
TTITLE10=Pedidos de um peão
TTITLE11=Minha Geovana
EXTD=
EXTT0=
EXTT1=
EXTT2=
EXTT3=
EXTT4=
EXTT5=
EXTT6=
EXTT7=
EXTT8=
EXTT9=
EXTT10=
EXTT11=
PLAYORDER=
